<svg xmlns="http://www.w3.org/2000/svg" width="1334.667" height="1333.333" version="1.0" viewBox="0 0 1001 1000"><path d="M473 68.6C425.7 73 399.3 78.2 364 90c-49.1 16.4-99.5 45-137 77.8-22.5 19.6-45.9 44.6-61.5 65.6-15.6 21-34.5 52.2-42.2 69.6-1.4 3-3.6 8-5 11-9.8 21.5-21.2 56.6-26.3 81.5-4.2 20.1-6.5 37.3-8.5 63.4-2.1 27.5-1.8 26.3-6.3 25.9-3.5-.3-3.7-.5-4.3-4.3-1.1-7.1-.9 25 .2 38.2 4.5 53.9 19.3 106.4 43.8 155.3 16.4 32.5 44.5 75.7 65.7 100.7 48.6 57.2 106.5 97.3 176.8 122.5 16.6 5.9 33.3 10.4 63.6 17 42.1 9.1 40.3 8.8 67 9.5 28.9.7 41.8-.4 64.5-5.2 8.8-1.8 23.9-5 33.5-7 78.6-16.4 147.2-53.2 203.6-109.3 69.8-69.2 111.6-157 125.5-263.4 3-23.3 3.7-69.6 1.4-93.8-2.6-27.3-7.6-54.6-9.8-53.3-.7.4-.6-.1.2-1 1.2-1.5 1.1-1.7-.5-1.8-1.1 0-1.4-.3-.6-.6.6-.2 1.2-.9 1.2-1.4 0-.4-.7-.6-1.5-.3-.8.4-1.7-.1-2.1-1-.3-.9-1-1.6-1.5-1.6-2.6 0-6.7-6.3-9.3-14.1-3.9-11.7-10.4-29.8-12.1-33.4-.7-1.7-2-5-2.8-7.5-6.3-18.7-24-52.5-40.9-77.8-64.2-96.4-169.5-162.6-284.3-178.7-27.2-3.8-63.6-5.5-81.5-3.9zm73 21.2c48.2 6.7 88.3 19.3 130.5 41.1 67.6 34.8 124.1 89.3 162.9 157 40.3 70.1 57.7 130.2 59.3 204.6.6 29.1-.7 49.3-4.7 72.5-2.5 14.4-8.2 36.5-10.9 42.2l-2.1 4.3.6-6.5c.3-3.6 1.4-11.9 2.4-18.5 7.1-45.2 8.6-112.9 3.4-153.5-2.7-21.5-10.5-57.1-13.4-61.7-1-1.6-1.1-1.6-.7.4.6 2.6-.8 3.1-1.7.8-.9-2.4-13.1-2-21.3.7-3.8 1.2-6.9 2.6-7.1 3-.5 1.2-8.3 4.4-14.2 5.8-7.7 1.8-12.6 4.5-14.7 8-1.7 2.9-1.9 3-9.9 3h-8.2l-1.5-3.3c-.8-1.7-2.2-5.2-3-7.7-2-5.7-9.4-23.1-14.2-33.5-36.2-76.7-103.3-136.5-183-163-32.8-10.9-62.8-15.6-99-15.6-48.4 0-90.7 9.4-132.8 29.4-20.9 9.9-36.3 19.3-55.2 33.6-11.8 8.8-9.6 7-23.7 20.1-43.7 40.6-73.3 90-88.8 148.5-3.4 12.8-7.5 35.8-8.8 49.5-2 20.7-1.1 57.8 1.7 77 1.2 7.8.8 8.3-4.7 6-6.8-2.6-8.8-3.9-17.2-10.1-7-5.2-16.3-13.3-21.7-18.8-1.3-1.3-2.3-2.1-2.3-1.7 0 .4-1.3-.7-2.9-2.3-3.6-3.7-11-7.1-15.3-7.1-1.9 0-3.8-.4-4.4-1-.5-.5-3.8-1.3-7.2-1.6-9.8-1.1-9.7-.7-9.7-26.3 0-27.7 2.8-48.5 11.1-81.6 25.8-102.6 93.4-191.6 186.2-244.9 48-27.5 100-44.1 157.2-50.2 19-2 70.2-1.2 89 1.4zm-26 103.3c100.7 9.1 188.7 68.6 233.4 157.7 10.2 20.3 20.3 48.9 19.9 56.4 0 1 .3 1.8.8 1.8.4 0 .7.9.6 2.1-.1 1.9-.2 1.9-1.4.3-1.1-1.5-1.3-.7-1.3 5.2 0 5.5.5 7.9 2.4 11.4 1.4 2.5 3 4.4 3.6 4.2.6-.1.9.2.5.8-.3.5-.3 1.6.1 2.2.5.7.9 1.9 1 2.8.7 4.4 1.5 9.2 2.5 15.5 1.4 8.1 1.8 39.1.6 51.3-4 44.6-18 87.5-40 122.6-26.9 43.1-58.1 74.8-95.7 97.3-13.4 8.1-25 13.3-27.9 12.8-1.4-.3-5.6-.8-9.3-1.1-3.8-.4-6.8-1.1-6.8-1.5 0-.5-2.3-1.1-5.1-1.5-2.8-.4-5.6-1.3-6.4-2-.7-.8-2.1-1.4-3-1.4-.9 0-4.8-1.3-8.7-3-3.8-1.6-7.6-3-8.4-3-.8 0-1.4-.5-1.4-1 0-.6-.6-1-1.2-1-.7-.1-3.1-.9-5.3-2-2.2-1.1-4.3-1.9-4.7-2-.9 0-4.8-3.7-4.8-4.5 0-.3-1.7-2.2-3.8-4.3-5.7-5.6-8.2-9.2-8.2-11.8 0-1.2-.5-2.4-1.1-2.6-1.4-.5-3.9-15.2-3.9-22.9v-5.5l-7.2-2.9c-9.3-3.6-19.7-11.3-32.4-23.9-10.9-11-19.7-23.4-28.5-40.3-4.2-8-5.6-9.9-6.6-9.1-1 .8-1.2.7-.7-.6.3-.9.2-1.6-.4-1.6-2.6 0-3.2 23.4-.8 35 .8 4.1 1.7 10.3 1.9 13.7.2 5.1.9 7 3.6 10.8 4 5.6 15.6 15.4 19.1 16.1 4.6 1 5.4 1.4 4.4 2.4-4.4 4.4-25.7-14-32.7-28.3l-2.6-5-.6 3.6c-.4 1.9-.8 5.8-.8 8.5-.1 2.8-.5 4.8-.8 4.6-.9-.5-2 4.1-1.4 5.8.8 1.9-4.6 10-8.7 13.1-5.5 4.2-13.5 5.9-32 6.4-14.8.5-16.6.7-16 2.2.3.9 1.1 2 1.9 2.4.7.4 1.3 1.6 1.3 2.5 0 1 .4 2.2.9 2.7 1.6 1.8 4.1 10.8 4.1 14.8 0 4.5-4.2 12.7-6.5 12.7-.8 0-1.5.7-1.5 1.5s-.9 1.5-2 1.5-2 .7-2 1.5-.1 1.5-.2 1.6c-.2 0-8.4.4-18.3 1-9.9.5-20.9 1.3-24.5 1.8l-6.4.9-7.1-4.5c-19.7-12.8-45.7-36.4-60.8-55.3-9.3-11.6-22.4-31.2-25.8-38.5-2.4-5.3-2.8-7.9-3.8-23.2-1.2-18.7-2.5-25.4-6.6-33.5-3.3-6.5-7.8-13.7-8.6-13.8-.4 0-2.4-1.6-4.5-3.5s-4.4-3.5-5-3.5c-1.7 0-2-.6-5.4-11.2-2.5-7.9-2.9-8.5-2.4-4.3.4 2.7 1.7 9.9 3 16 1.3 6 4 20.2 5.9 31.4 3.8 21.9 3.6 26.3-.8 17.5-5.9-11.7-10.8-30.1-14.3-53.4-2.4-15.7-2.4-50.3 0-65 .9-5.8 2.4-16.6 3.2-24C220.9 333.2 302 236 416 203.2c17.4-5 38.7-8.9 58.5-10.5 9.5-.8 34.9-.6 45.5.4zM853.5 388c.6 1-2.2 1.9-17 5.4-5.5 1.3-10.8 2.7-11.7 3.1-2.1.8-2.5-1-.5-2.2 1.2-.7 25-7 27.4-7.2.6-.1 1.4.3 1.8.9zm-30.8 25.9c3.4 1.7 7.7 1.3 21.3-1.9 14-3.3 14-3.3 14-2.1 0 .4-5.1 2-11.2 3.5-19.3 4.7-24 4.7-28.4-.1-3-3.3-3.2-5.3-.1-2.6 1.2 1.1 3.2 2.6 4.4 3.2zm30.1 24.7c-1.2 1.2-2.4 1.4-4.5.9l-2.8-.9 3.5-.6c5.4-1.1 5.5-1.1 3.8.6zm-15.3 1.4c-.3.5-1.9 1-3.6 1-1.6 0-2.9-.5-2.9-1 0-.6 1.6-1 3.6-1 2.1 0 3.3.4 2.9 1zm-48.6 9.7c9.6 30.3 10.6 75.1 2.6 113.3-2.5 11.8-9.5 31.9-12.1 34.8-3.1 3.6-3.1 3.7 1-23.7 5.3-34.7 6-43.5 6-71.6 0-23.2-1.5-51.6-3.1-59.6-.4-2.2-.2-2.9 1-2.9 1 0 2.5 3.1 4.6 9.7zM861 454c0 1.6-6.3 5-9.3 5-1.6 0-3.7-.5-4.8-1.1-1.6-.8-2.6-.5-5 1.5-4.6 3.9-14.3 3-15.7-1.3-.4-1.1.1-1 1.9.2 3.6 2.6 10.2 2.2 13.6-.7 2-1.7 3.4-2.2 4.4-1.5 2.4 1.5 8.2 1 11.4-1 3.7-2.4 3.5-2.3 3.5-1.1zm-756.4 81.5c1.9 14.2 4.3 26.9 8.3 43.7 5.3 22.7 4.7 30.5-.9 11-5.5-19.2-9.6-46.3-10.4-69.1-.5-11.2-.4-11.8.4-5.1.6 4.1 1.7 12.9 2.6 19.5zm37.9.5c3.5 2.3 8 2.5 11.5.5 2.9-1.6 4-1.8 4-.7 0 1.3-6.7 4.2-9.6 4.2-2.9 0-5.8-1.4-8.8-4.1-2.6-2.5-.9-2.4 2.9.1zm713.6.4c-3.5 4.2-12.2 4.4-15.7.4l-1.9-2.1 3.2 1.7c4.2 2.1 9.2 2 12.3-.4 2.7-2.1 4-1.9 2.1.4zM797 564c0 .5-.2 1-.4 1-.3 0-.8-.5-1.1-1-.3-.6-.1-1 .4-1 .6 0 1.1.4 1.1 1zm-2.5 36c0 16.5.3 30 .7 30 .4 0 .5 1.3.2 3-.4 1.8-.1 3.6.6 4.5.7.8 1 1.5.6 1.5-.3 0 1.5 2 4.1 4.5 3.4 3.3 4.2 4.5 2.8 4.5-1 0-3.3-1.5-5.1-3.4-2.6-2.7-3.4-3.1-3.9-1.8-.4 1.2-.8 1.3-1.7.4-1.5-1.5-6.5-1.6-7.4-.1-.3.6-.8 4.1-1 7.7-.4 7.1 2 14.4 5.6 17.2 1.8 1.4 1.8 1.6-1.8 5.5-2 2.3-3.6 3.9-3.6 3.7.7-1.6-2.3-9.3-4.3-11.5-4.5-4.6-5.8-3.8-7.7 4.6-1.4 6.2.1 15.6 3 18.8 1.8 2 1.8 2.1 0 3.1-1 .5-3 3-4.6 5.4l-2.8 4.4.5-6.2c.3-5.1 0-6.9-1.6-9.6-2.6-4-5.7-4.2-7.3-.5-2.6 6.6-3.3 15.9-1.4 21.3 1.4 4.1 1.4 4.5-.4 5.7-1 .7-3.5 3.6-5.5 6.3-2.1 2.8-3.9 4.9-4.1 4.7-.2-.2.5-2.5 1.7-5.2 2.6-5.9 2.3-15.5-.5-18.3-1.6-1.6-1.9-1.5-4.2 1.3-6.7 8.3-8.7 19.9-4.9 28.7.5 1.2.3 1.8-.7 1.8-1.4 0-11.8 9.8-11.8 11.1 0 .5-.5.9-1.2.9s-.5-.6.4-1.8c4.4-4.9 7.7-17.8 5.8-22.6-1.5-4.1-5.1-3.5-8.6 1.5-3.9 5.7-7.6 16.7-6.3 19.1.6 1 .7 2.3.4 2.8-.3.5.1 2 1 3.4 1.6 2.3 1.5 2.5-.7 3.6-1.3.7-4.7 3.5-7.6 6.4l-5.3 5.1 3.1-5.6c3.2-6 4.2-10 4-16.3-.1-4.7-.6-5.6-2.9-5.6-3.6 0-9.4 8.8-11.3 17.1-.6 3-1.1 5.8-1 6.2.2.5.4 2.6.6 4.6.3 3.3 0 4-2.3 5.4-1.5.9-3.9 2.8-5.4 4.3-2.9 2.9-3.6 1.8-1.3-1.9 1.7-2.5 3.3-11.8 2.8-16-.6-5.3-5.8-2.6-10.6 5.5-3.2 5.5-4.4 9.5-5.1 16.3-.3 3.2-1.1 5.4-2.2 6-.9.5-3.4 2.5-5.5 4.4-4.1 3.6-4.8 3.4-2-.7 3-4.4 5.2-10.9 5.2-15.7 0-4.1-.2-4.5-2.4-4.5-2.6 0-9.6 6.9-13.6 13.5l-2.5 4-.7-5.2c-.4-2.8-1.7-7-2.9-9.2-1.1-2.2-1.8-4.5-1.4-5.1.3-.5.2-1-.3-1-.6 0-1.3-1.1-1.6-2.5-.4-1.4-1-2.5-1.5-2.5s-5.8 2.3-11.7 5.1c-53.9 25.2-104 34.8-159.9 30.9-14.1-1-31.6-3.2-39-5-2.2-.5-8.9-2.1-14.9-3.5-31.2-7.3-60.6-19.7-91-38.3-12-7.4-13.1-7.8-16.1-6.9-4 1.2-11.9.1-13.5-1.8-.7-.8-1.6-1.5-2.1-1.5-1.1 0-4.5-2.8-7.8-6.4-1.4-1.5-3.4-3.7-4.3-4.7-1-1-1.8-2.3-1.8-2.8s-.4-1.1-.8-1.3c-1.3-.5-4.9-6.1-5.7-8.8-.4-1.4-1.6-3.7-2.6-5.2-1.1-1.4-1.9-3.2-1.9-4 0-.8-4.3-6.6-9.6-12.9-13.7-16.3-30.1-39.1-32.1-44.7-1-2.7 0-1.4 8.2 10.3 12 17.2 21.8 28.8 37 44 52.4 52.4 118.4 83.8 190.8 90.6 16.9 1.5 58.5.7 72.7-1.6 71.6-11.3 129-40.8 179.2-92.1 22.9-23.4 39.1-46.1 53.8-75.4 7-14 15.6-33.6 18.5-42.3 1.1-3.1 2.3-5.7 2.7-5.7.4 0 .5-.7.2-1.5-.4-.8-.2-1.5.2-1.5.5 0 .9 13.5.9 30zm28 26c-.3.5-1.1 1-1.6 1-.6 0-.7-.5-.4-1 .3-.6 1.1-1 1.6-1 .6 0 .7.4.4 1zm-2.5 2.4c0 .2-.8 1-1.7 1.7-1.6 1.3-1.7 1.2-.4-.4 1.3-1.6 2.1-2.1 2.1-1.3zm15 5c0 .2-.8 1-1.7 1.7-1.6 1.3-1.7 1.2-.4-.4 1.3-1.6 2.1-2.1 2.1-1.3zm-672.4 5.7c.9 1.5 11 5.9 13.4 5.9 1.1 0 2 .4 2 1 0 1.4-1.3 1.3-7.2-1-2.9-1.1-7.1-3.7-9.3-5.6-2.2-2-3-3.1-1.8-2.5 1.2.6 2.5 1.6 2.9 2.2zm665.4 2c-4.7 4.1-11.6 7.5-16.8 8.3-5.3.8-4.8-.9.5-1.9 4.1-.7 11.4-4.3 15.3-7.4 4-3.3 4.9-2.3 1 1zm-599.6-.5c.3.8.2 1.2-.4.9-.6-.3-1-1-1-1.6 0-1.4.7-1.1 1.4.7zM822 658.5c-.7.8-1.7 1.5-2.2 1.5-.6 0-.5-.7.2-1.5s1.7-1.5 2.2-1.5c.6 0 .5.7-.2 1.5zm-641.4 7.3c2.3 1.2 5.8 2.2 7.9 2.4 2 .1 3.9.6 4.1 1 .8 1.3-4.7.8-9-.7-4.4-1.5-13.6-7.6-13.6-8.9 0-.4 1.5.3 3.3 1.6 1.7 1.4 5.1 3.5 7.3 4.6zm638.4-4.3c0 .9-5.7 5.7-9.6 8-2.2 1.3-6.2 2.9-8.8 3.6-2.6.6-5 1.7-5.2 2.4-.3.7-2.4 2.7-4.6 4.6l-4.1 3.2 4.2-6.1c3.7-5.4 4.6-6.2 7.4-6.2 3.6 0 11.5-3.5 16.6-7.4 3.6-2.7 4.1-2.9 4.1-2.1zM199 666c0 .5-.5 1-1.1 1-.5 0-.7-.5-.4-1 .3-.6.8-1 1.1-1 .2 0 .4.4.4 1zm608.7 17.4c-1.5 1.8-4.9 5-7.7 7.1-2.8 2-5 4.5-5 5.5 0 1.4-1.2 1.9-6 2.4-6.4.7-14.3 3.6-17.2 6.3-3.2 2.9-1.9.2 2.8-5.4 4.4-5.5 4.7-5.6 9.7-5.8 6.6-.1 15.1-4.1 20.9-9.9 5-5 6.2-5.1 2.5-.2zm-621.4 1c5.2 4 11.9 6.6 17 6.6 3.3 0 4.6.4 4.1 1.1-1.9 3.1-15.5-1.2-22.4-7.1-4.1-3.6-3.2-4 1.3-.6zm609.3 19.2c-.3.9-.6 8-.6 15.8v14.2l-6.4 7.9c-26.2 32.8-81.3 74.5-121.6 92.1-7.3 3.2-7.5 3.2-9.3 1.4-.9-1.1-2-3.4-2.3-5.2-1.2-6.8-2.2-7.8-8.3-7.8-7.2 0-12.3-1.5-16-4.6-3-2.5-3-2.5-8-.8-7.7 2.5-8.1 1.2-.6-1.9l6.8-2.8 2.6 2.4c3.6 3.3 10 5.5 14.7 5 5.5-.5 13.4-3.3 14-4.8.8-1.9-1.3-5.3-3.6-6-1.2-.4-2.3-1.8-2.7-3.5-.5-2.8-.7-2.9-3.2-1.6-2.7 1.3-9.1 2.9-9.1 2.2 0-.8 11.3-6.6 12.7-6.6.7 0 1.3.5 1.3 1 0 1.8 8.2 5 12.7 5 4.7 0 14.5-3.3 16.3-5.5 1-1.2 1-1.8-.1-3.1-3.2-3.9-10.8-5.6-17.9-4-3 .6-2.4 0 3.9-3.9 6.4-4.1 7.5-4.5 9-3.2 5.4 4.6 14.1 4.7 23.3.3 6.1-2.9 7.7-5.1 5.4-7.5-2-1.9-12.5-2.7-16.7-1.2-1.8.6-3.4.9-3.6.7-.5-.5 12.1-8.6 13.4-8.6.5 0 2.5.7 4.2 1.6 2.8 1.4 4.2 1.5 8.9.5 3.2-.6 8.2-2.3 11.2-3.9 4.4-2.2 5.5-3.3 5.5-5.2 0-2-.8-2.6-4.7-3.9-4.2-1.3-5.2-1.3-9 .2l-4.3 1.6 5-4.3c3.8-3.4 5.3-4.2 6.7-3.5.9.5 4.5.9 8 .9 4.8 0 7.7-.6 11.5-2.5 5.6-2.8 8.8-5.8 7.9-7.4-1.1-1.8-8.8-3.3-13.1-2.7l-4 .7 3.2-3.3c3.2-3.1 3.5-3.2 12-3.3 9.7-.1 14.2-1.8 20.6-7.8l3.2-3-3-1.3c-4-1.7-9.8-1.7-14 0-1.9.8-3.5 1.2-3.5.8 0-.3 1.8-2.5 4.1-4.8 4.1-4.2 4.2-4.2 9.9-3.7 7 .7 14.1-2.2 21-8.5 4.7-4.3 7.7-5.5 6.6-2.6zm-594.2 2.9c6.4 4.9 12.4 6.8 19.2 6.2 4.3-.4 6.5-.2 7.3.6.8 1-.7 1.2-6.7 1.2-8.3 0-15.5-2.7-21.7-7.9-3.8-3.3-2.4-3.4 1.9-.1zm16.4 19.4c8.4 5.8 16.6 8 23.2 6 4.1-1.2 4.1-1.2 7.8 2.5 2.3 2.3 2.9 3.4 1.6 2.8-1.1-.6-2.6-1.7-3.2-2.5-.9-1-3.1-1.3-9-.9-6.8.4-8.5.1-13.3-2.1-5.2-2.5-12.3-7.6-10.6-7.7.5 0 2.1.8 3.5 1.9zm23.9 21.3c4.8 2.7 6.8 3.3 12.3 3.3 3.6 0 7.6-.3 9-.7 2.1-.7 3.3-.1 7 3.3 4.5 4 4.5 4 1 2.3-1.9-.9-4.3-2.3-5.2-3.1-1.3-1.2-2.1-1.2-3.9-.3-3.7 2-13.9.7-19.8-2.5-4.7-2.6-8.3-5.5-6.7-5.5.3 0 3.2 1.5 6.3 3.2zM269 745c0 .5-.5 1-1.1 1-.5 0-.7-.5-.4-1 .3-.6.8-1 1.1-1 .2 0 .4.4.4 1zm543.4 3.7c-1.5 2.1-3.1 4-3.4 4.3-.3.3-3.3 3.9-6.7 8-5.3 6.6-6.1 8.1-6.5 12.7-.4 4.6-1.1 5.9-5.4 10.5-18 19.4-44.1 39.6-76.4 59-13.8 8.3-16.8 9.5-25.5 10-6.1.4-9.3 1.1-13.3 3.2-8.7 4.4-35.7 15-52.3 20.5-15.4 5.1-45.7 13-57.9 15-23.9 3.9-74.2 5.8-103.4 3.8l-11.9-.8.7 3.2.6 3.2-9.2-.7c-10.7-.8-23.5-2.9-32.8-5.4-6-1.7-6.5-2-6.2-4.4.3-3.4-.7-4-12.3-7.3-52.2-14.5-100-37.4-138.3-66.2-9.3-7-17.4-13.4-18.2-14.4-.3-.3-4.5-4-9.3-8.2-4.9-4.3-8.6-7.7-8.2-7.7.3 0 5.8 4.4 12.3 9.8C300.1 856.1 384.1 889 477 894c65.8 3.6 138-11.4 199.4-41.5 22.8-11.1 51.2-28.5 68-41.6 21.3-16.6 52.1-45.6 66.1-62.1 4.6-5.5 6.1-5.6 1.9-.1zM278 753.3c0 .5-.4.5-1 .2-.5-.3-1-1.4-1-2.3 0-1.5.2-1.5 1-.2.5.8 1 1.9 1 2.3zm13 4.7c0 .5-.2 1-.4 1-.3 0-.8-.5-1.1-1-.3-.6-.1-1 .4-1 .6 0 1.1.4 1.1 1zm5 3.4c0 .3-.4.8-1 1.1-.5.3-1 .1-1-.4 0-.6.5-1.1 1-1.1.6 0 1 .2 1 .4zm-33.6 3.5c7.5 4 13.6 4.8 20 2.8 5.6-1.8 5.8-1.7 12.6 4.2l3.5 3.1-3-1.3c-1.6-.6-4.2-2-5.8-3.1-2.3-1.6-3.1-1.7-5.7-.6-4.8 2-14.8.8-21.6-2.7-3.2-1.6-6-3.5-6.2-4.1-.5-1.7-.1-1.6 6.2 1.7zm36.1 3.2c1.1 1.7-.1 2.1-1.5.4-.8-.9-.8-1.5-.2-1.5.6 0 1.4.5 1.7 1.1zm-90 10.9c2.7 2.7 4.7 5 4.4 5-.3 0-2.7-2.3-5.4-5-2.7-2.8-4.7-5-4.4-5 .3 0 2.7 2.2 5.4 5zm108.8-2c.3 1.1.1 1.8-.4 1.4-.5-.3-.9-1.2-.9-2 0-2 .7-1.7 1.3.6zm-35.1 5c7.6 4.6 17.5 5.4 23.8 1.9l3.9-2.2 6.3 4.3c4.7 3.1 5.6 4.1 3.5 3.6-1.6-.4-4.5-1.7-6.5-3l-3.7-2.2-4 2.3c-2.2 1.2-5.6 2.3-7.5 2.3-6.2 0-17.2-4.1-19.9-7.4-1.9-2.3.1-2 4.1.4zm38.8 1.2 2.3 3.3-3.1-2.9c-3.4-3.1-3.7-3.6-2.4-3.6.5 0 1.9 1.5 3.2 3.2zM215.5 785c.3.5.1 1-.4 1-.6 0-1.1-.5-1.1-1 0-.6.2-1 .4-1 .3 0 .8.4 1.1 1zm124.5 4c0 .5-.4 1-1 1-.5 0-1-.5-1-1 0-.6.5-1 1-1 .6 0 1 .4 1 1zm310.3 1.6c.9.9-3.1 6.5-6.7 9.4-3.1 2.5-3.1 2.5.7-2.6 2-2.9 3.7-5.7 3.7-6.3 0-1.2 1.3-1.5 2.3-.5zM342.8 794c1.4 1.9 1.7 2.7.8 2.4-1.7-.7-5-5.4-3.8-5.4.4 0 1.8 1.3 3 3zm-3.1 5.5c3.5 2.1 5 3.5 3.9 3.5s-3.9-1.1-6.3-2.5c-3.7-2.2-4.4-2.4-4.9-1-1 2.6-7.5 5-13.4 5-5.7-.1-15.3-3-17.2-5.2-1.5-1.9.2-1.7 6.4.8 8.8 3.5 21.3 2.1 23.2-2.6.8-2.2 1.8-1.9 8.3 2zM628 798c0 .5-.4 1-1 1-.5 0-1-.5-1-1 0-.6.5-1 1-1 .6 0 1 .4 1 1zm-261.2 6.6c2.5 3.4 2.9 4.3 1.4 3.5-2-1.1-6.7-8.1-5.4-8.1.4.1 2.2 2.1 4 4.6zm259.2-1.1c0 .8-.4 1.5-1 1.5-.5 0-1 .6-1 1.4 0 .7-1.9 2.6-4.2 4.1l-4.3 2.8 3-3.4c1.7-1.9 3.3-3.6 3.6-3.9.3-.3.8-1.3 1.2-2.3.8-2.1 2.7-2.3 2.7-.2zm-22.6 4.7c-1.3 4.4-5.9 10-10.4 12.6l-4.5 2.6 6.8-7.3c3.7-4.1 6.7-8 6.7-8.7 0-.8.5-1.4 1.1-1.4.6 0 .8.9.3 2.2zm-211.2 5.3c7 7.1 7.3 8.3.8 3.2-3.7-2.8-9.1-9.7-7.6-9.7.3 0 3.4 2.9 6.8 6.5zm-27.2-1.6c5.2 2.1 6.7 3 4.9 3-1.5.1-4.6-.6-6.9-1.4-4.1-1.4-4.5-1.4-6.4.4-3.2 3-9 5.1-14 5.1-4.5 0-13.2-2.4-15-4.1-1.9-1.7.3-2 3.9-.5 6.9 2.9 13.5 3.1 19.3.6 2.8-1.2 5.4-3.1 5.7-4.1.4-1 .7-1.9.8-1.9.1 0 3.6 1.3 7.7 2.9zm44.5-1.9c.3.5.1 1-.4 1-.6 0-1.1-.5-1.1-1 0-.6.2-1 .4-1 .3 0 .8.4 1.1 1zm168.1 7.2c-3.1 4.9-10 10.8-12.6 10.8-.6 0 1.2-2.1 4-4.7s6.6-6.9 8.3-9.6c2-3.1 3.3-4.4 3.5-3.4.2.8-1.2 3.9-3.2 6.9zm-161.8.7c3.2 3.2 6.6 6.3 7.7 6.9 3 1.7-.2 1.4-3.3-.2-3-1.6-7-5.7-9.7-9.9-2.8-4.3-.8-3.2 5.3 3.2zm-18.9 6.6c1 1.1-3.9.4-7.9-1-2.8-1-4.7-1.2-5.9-.5-.9.5-1.2 1-.7 1s-.1 1.1-1.4 2.5c-3.1 3.3-11.2 5.9-15.8 5.1-6.6-1.1-11.5-2.7-10.6-3.6.5-.5 3.4-.2 6.4.6 4.4 1.2 6.5 1.2 10.5.3 5-1.1 11.5-6 11.5-8.6 0-.9 1.8-.6 6.7 1.2 3.7 1.4 6.9 2.8 7.2 3zm208.6-.6c.8 2.7 4 5.3 8.3 6.8 4.8 1.6 8.5 1.6 15-.1 2.9-.7 5.5-1 5.8-.5.7 1.2-2.4 2.5-9.8 3.9-7.2 1.5-13.2.4-17.1-2.9-1.7-1.4-2-1.4-3.3.4-.8 1-1.4 1.5-1.4.9-.1-1.6-5.1-4.6-8.4-5-1.7-.1-3.5-.3-4.1-.4-1.1-.2 11.3-4.8 13.2-4.9.6-.1 1.4.7 1.8 1.8zm-186 5c8 1.7 8 1.8 3.9 2.4-4.5.7-12.5-1.1-13.2-3.1-.5-1.5-.5-1.5 9.3.7zm-8.5 2.5c0 .7-1.8 3.2-3.9 5.4-3.1 3.2-5 4.2-8.6 4.8-5.4.8-14.4-.1-15.9-1.6-1.6-1.6-.2-2 3.5-1 8.3 2.4 15.6.5 20.4-5.3 3.2-3.8 4.5-4.5 4.5-2.3zm166-.4c0 1.8 6.5 8.3 9.7 9.6 4 1.7 15.5 1.8 17.1.2.6-.6 1.5-.8 1.9-.5 1.4 1.4-2.6 3.9-7 4.4-8.3 1-13.5-.4-18.3-4.9-2.4-2.2-4.4-4.6-4.4-5.3 0-1-2-1.2-8.2-.9-9.3.5-9.3.1.2-2 8.2-1.8 9-1.8 9-.6zm-114.3 1.5c-.7 2.1-17.5 3.3-22.1 1.5-5-1.9-2.5-2.5 9.9-2.5 7.9 0 12.4.4 12.2 1zm86.5 3.7c-.9.9-4.9 1.3-12.9 1.3-8.4 0-11.7-.3-12-1.3-.4-.9 2.6-1.2 12.8-1.2 10.6 0 13.1.3 12.1 1.2zM439 840.4c0 .7 1.1 3.8 2.4 6.7 1.2 3 2.6 7.9 2.9 10.9.4 3 1 6.7 1.3 8.2.6 2.8.6 2.8-4.3 2.8-8.3 0-35.3-5.6-35.5-7.3 0-.4 1-3.9 2.2-7.6l2.3-6.8 7.2.5c7.9.5 12.8-1.3 17.4-6.2 2.7-2.9 4.1-3.3 4.1-1.2zm114 4c3.9 4.4 12.2 7.1 19.1 6.2 2.8-.4 4.9-.3 4.9.3 0 1.4-2.7 2.1-9 2.1-7.7 0-14.1-2.8-16.9-7.3-3.5-5.8-2.6-6.5 1.9-1.3z"/><path d="M481 126.9c0 9.3.3 18.3.6 20 .6 2.8 1 3.1 4.6 3.1h3.9l-.3-7.3-.3-7.2 7.8-.3 7.7-.3v-9.2l-8 .6-8 .5V123c0-3.5.2-3.8 3.8-4.4 2-.3 5.6-.6 8-.6h4.2v-8h-24v16.9zM530.5 113.9c-5.7 2.5-9.1 7.1-10.5 13.6-4.5 21.5 19.3 35.3 34.5 20 3.5-3.4 4.5-5.4 5.5-9.9 1.4-7 0-14.2-3.6-18.6-5.6-6.6-17.5-9-25.9-5.1zm17.5 9.8c5.7 5.2 5.6 12.9-.1 17.7-5.8 4.9-11.1 4.6-16.6-.9-2.8-2.8-3.3-4-3.3-8s.5-5.2 3.4-8.1c3-3 4-3.4 8.5-3.4 4.1 0 5.6.5 8.1 2.7zM419.8 118c-4.8 2.6-6.7 8-4.9 14 1.6 5.3 5.5 7.7 13.8 8.6 8.6.9 11.7 3.8 6.8 6.4-3.4 1.8-8.1 1.7-10.3-.3-2.4-2.2-4.5-2.1-6.5.1-2.3 2.5-2.1 4.5.6 7 6 5.6 16.1 5.4 22.8-.6 5.5-4.9 4.9-15.4-.9-18.2-1.5-.7-5.8-1.9-9.7-2.6-8.2-1.6-10.5-3.3-8-5.8 2.1-2.1 7.3-2.1 9.7.1 1.8 1.6 2 1.5 5.1-1.5l3.1-3.2-2.2-2c-4.7-4.4-13.1-5.3-19.4-2zM584.5 125.2c-5 2.6-7.6 4.8-6.9 5.9.3.5.1.9-.4.9s-1.6 2.4-2.5 5.4c-2.7 9.5.3 18.6 8 23.9 7.5 5.4 17.3 4.9 24.3-1 12.4-10.7 10.2-29.7-4.2-35.8-5.3-2.1-13.4-1.9-18.3.7zm16.6 8.5c10.2 6.1 5.2 22.4-6.8 22.3-2.4-.1-11.1-3.8-9-4 .4 0-.2-.9-1.3-2-3.9-3.9-1.8-13.4 3.8-16.4 3.7-2 9.8-2 13.3.1zM374 129.8c-8.3 4.2-11 8.9-11 18.7 0 11.1 7 19.8 17 21.1 16.1 2.2 28-13 22.5-28.7-1.9-5.2-4.7-8.4-9.7-11-4.9-2.5-14.1-2.5-18.8-.1zm16.4 9.3c3.1 2.5 5.6 6.9 5.6 10.1 0 6.4-7.9 12.6-14.7 11.5-6.6-1.1-10.3-5.7-10.3-12.8 0-3.3.7-4.8 3.4-7.5 3-3 4.1-3.4 8.4-3.4 3.5 0 5.7.6 7.6 2.1zM630.1 138.1c-1.7 4.8-1.5 5.3 3.4 7.2 4 1.7 5.1 3.2 3.5 4.7-.3.3-2.3 4.1-4.4 8.5-2.1 4.4-4.5 9.2-5.3 10.7-.8 1.6-1.1 2.8-.7 2.8.3 0 .1.7-.6 1.5-.6.8-.9 1.8-.6 2.3 1 1.6 6.7 3.5 7.6 2.6.5-.5 3.4-6.7 6.5-13.9 3.1-7.1 5.8-13.1 6-13.3.1-.2 2 .4 4 1.2 2.1.9 4.3 1.6 4.9 1.6 1.5 0 4.8-6.7 3.7-7.4-1.7-1.1-25.5-11.6-26.2-11.6-.4 0-1.2 1.4-1.8 3.1zM328.5 149.4c-4.6 2-9.6 6.6-11.1 10.3-3.5 8.3-.5 20.6 6.4 26.3 8.4 6.9 22.8 5 29-3.8 1.9-2.7 4.7-10.1 4-10.6-.1-.2-2-.6-4.1-.9-3-.5-3.9-.2-4.3 1.1-2.1 6.3-5.9 9.2-12.4 9.2-3.6 0-4.8-.6-8.1-3.9-3.1-3.1-3.9-4.6-3.9-7.5 0-8.1 6.3-13.4 14.5-12.3 3.8.6 4.3.4 5.8-2.2 2.3-4 2.2-4.7-1.4-6-4.2-1.5-10.7-1.3-14.4.3zM671 157.2c-1 2.4-1.8 3.6-6.2 10.5-1.6 2.3-2.8 4.5-2.8 4.8 0 .4-2 3.8-4.5 7.6s-4.5 7.6-4.5 8.3c0 1.2 7.5 6.3 14.9 10.1 4.1 2.1 11.2 1.6 14.1-1 2.5-2.2 4.4-7.9 3.6-10.9-.4-1.8 0-2.6 1.9-3.4 3.7-1.7 5.9-7 5.1-12.5-.8-5.1-1.5-5.9-11-11.6-8-4.7-9.3-4.9-10.6-1.9zm10.1 12.1c4.1 2.7 4.8 5.2 1.9 6.7-1.7.9-2.9.7-6-.7-4.4-2-4.7-2.8-2.4-6.1 1.9-2.7 2.3-2.7 6.5.1zm-9.3 12.4c6.9 4.5 7.8 6.6 3.6 8.5-2 1-3 .9-5.4-.5-1.5-.9-3.5-1.7-4.4-1.7-.9 0-1.6-.3-1.6-.6 0-.9 4.1-7.4 4.6-7.4.3 0 1.7.8 3.2 1.7zM289.8 172.8c-1.6.9-2.8 2.3-2.8 3.1 0 .7 2.9 5.4 6.5 10.2 3.6 4.9 6.2 8.9 5.9 8.9-.3 0-1.9-.7-3.7-1.6-4.5-2.4-19.7-7.4-22.1-7.4-2.4.1-6 2.5-5.5 3.7.2.5 5.5 7.9 11.8 16.5l11.4 15.6 3.3-2.1c3.2-2.1 4.5-4.7 2.4-4.7-.5 0-1-.6-1-1.3 0-.7-1.1-2.4-2.5-3.9s-2.5-3.1-2.5-3.7c0-.5-.3-1.1-.7-1.3-.5-.2-2.1-1.8-3.7-3.5l-2.9-3.3 13.7 4.6c12.3 4.1 14.1 4.5 16.3 3.3 2.9-1.6 2.5-4.7-1.2-8.7-1.4-1.5-2.5-3.2-2.5-3.9 0-.6-.4-1.3-.9-1.5-.5-.2-2.6-2.8-4.8-5.8-8.7-12.3-10.7-15-11.2-15-.3 0-1.8.8-3.3 1.8zM702 197.6c-9.1 5.8-16.5 10.9-16.5 11.4s1.5 2.1 3.4 3.4l3.4 2.6 3.1-2 3.2-1.9 3.4 2.6c1.9 1.5 4.7 3.8 6.2 5.1 2.6 2.4 2.7 2.6 1.1 5.5-1.5 3-1.5 3.1 1.8 5.8 1.9 1.5 3.7 2.5 4 2.1.4-.4 1.2-2.5 1.8-4.7.7-2.2 1.9-5.6 2.6-7.5.8-1.9 3.3-8.9 5.6-15.5l4.1-11.9-3.1-2.8c-1.7-1.5-4.1-2.8-5.4-2.7-1.2 0-9.6 4.8-18.7 10.5zm15.3 5.3c-.6.3-1.3 1.7-1.6 3.1-.4 1.4-1.1 3.2-1.6 4-.8 1.2-1.2 1.2-2.9-.3-1-.9-2.4-1.7-3-1.7-3 0-1.6-2.2 3.5-5.4 4.9-3.1 5.9-3.4 6.1-2 .2.9 0 1.9-.5 2.3zM243.5 210.7c-7.1 3.7-11.5 11-11.5 19 0 15.6 16.6 26.1 30.1 19 8.5-4.5 12.5-13.5 10.7-24.1-1.1-6-5-11-10.9-14-4.2-2.1-14.4-2-18.4.1zm15.4 8.7c4 2.1 6.1 5.9 6.1 10.8-.1 4.8-2 7.7-6.8 10.2-4.1 2.1-7.8 2-11.7-.4-7.5-4.6-8.4-13.3-1.9-18.9 3.9-3.5 9.5-4.1 14.3-1.7zM736.5 226.4c-7.4 7.3-13.5 13.6-13.5 13.9 0 .4 3.5 4.3 7.9 8.8l7.8 8.2 3.2-2.4c1.7-1.2 3.1-2.8 3.1-3.5 0-.6-2.2-3.2-4.9-5.7l-4.8-4.5 10.8-10.8c6-6 10.9-11.4 10.9-12 0-1.4-4.3-5.4-5.8-5.4-.7 0-7.3 6-14.7 13.4zM766.5 249.6c-6 4.7-13 10.3-15.4 12.4l-4.5 3.7 7.3 9.2c4 5 7.6 9.1 7.9 9.1.4 0 2-1.1 3.6-2.4l3-2.3-2.4-3.4c-1.3-1.9-3.5-4.4-4.8-5.7-1.4-1.3-2.1-2.7-1.6-3.1.5-.5 5.6-4.5 11.4-9 12-9.4 14.1-11.7 11.6-12.7-.9-.3-1.6-1.2-1.6-1.9 0-1-2-2.5-3.3-2.5-.1 0-5.1 3.9-11.2 8.6zM209.5 249.2c-2.2 1.2-7.9 7-7.7 7.8.1.3-.4 1.3-1.2 2.2-3.2 3.7-4.9 6.9-4 7.7.5.5 7.6 5.9 15.8 12.2l14.9 11.3 2.3-3c1.3-1.6 2.4-3.4 2.4-3.9 0-1.2-5.7-5.8-8.2-6.8-1-.3-1.8-1-1.8-1.5s.8-1.6 1.8-2.4c1.4-1.3 2.9-1.4 9-.5l7.3 1 2.9-3.4c1.5-1.9 2.5-3.7 2.1-4.1-.4-.5-4.2-1.1-8.4-1.4-7.5-.7-7.7-.7-7.7-3.4 0-7.8-5.2-13-13.1-13-2.4 0-5.3.6-6.4 1.2zm10.9 10c2.1 2.9 2.1 2.7-1.4 6.8-2.8 3.3-3.1 3.4-5.2 2.1-1.3-.8-3.3-2-4.5-2.6l-2.2-1.2 2.6-3.6c2.1-3 3.3-3.7 5.9-3.7 2.3 0 3.8.7 4.8 2.2zM185 281.2c0 .6-2 4.3-4.4 8.2-2.4 3.9-5.4 9.1-6.6 11.5l-2.2 4.4 2.3 1.8c3.4 2.6 4.3 2.4 6.8-2.1 1.2-2.2 2.5-4 2.8-4 .3 0 6.2 3.4 13.2 7.5 7 4.1 13.3 7.5 14 7.5 1.2 0 4.8-6.6 4-7.4-1.2-1.2-25-14.6-25.9-14.6-1.5 0-1.3-.6 1.5-5 3.2-5 3.1-5.6-.5-7.5-3.5-1.8-5-1.9-5-.3zM798.6 299.9c-8.6 3.5-12.7 9-13.4 17.8-.7 9.8 5.5 19.1 14.7 22.2 1.9.6 3.5 1 3.6.9.2-.2.6-2.2 1-4.5.6-4.1.6-4.2-2.9-5.7-4.7-2-9.1-8.6-8.1-12.3 1.1-4.7 3.5-7.4 8.2-9.5 4.3-1.9 4.7-1.9 8.8-.3 3.5 1.3 4.8 2.5 6.5 6.1 1.9 3.8 2 4.9 1.1 7.7-1.1 2.9-1 3.4 1.6 5.4 3.7 3 4.1 2.9 5.9-1.4 2.1-5 1.3-14-1.6-18.7-4.8-7.9-16.3-11.3-25.4-7.7zM818.5 348c-11.9 4.6-17.9 7.3-17.7 8.2 1.3 5.4 7.7 20.8 8.7 20.8.7 0 2.6-.5 4.4-1.1 3.6-1.3 3.5-1.8-.4-10.2-1.5-3.3-1.9-5-1.1-5.3.6-.2 7.2-2.6 14.6-5.3 7.4-2.7 13.6-5.4 13.8-6 .2-.7.1-1.9-.4-2.9-.4-.9-.8-2.4-.8-3.2-.1-.8-.8-1.5-1.6-1.6-.8-.1-9.6 2.9-19.5 6.6zM154.1 346.5c-8.6 7.3-7.3 21.3 2.4 24.5 5 1.7 7.2.6 14.6-7.2 6-6.4 6.8-6.9 8.7-5.9 2.7 1.5 2.8 3.7.2 7.9-1.3 2.1-3.1 3.5-5 3.9-3.4.6-3.4.5-1.9 5.5 1.2 4.4 2.8 4.8 7.6 1.8 7.5-4.5 11.3-15.9 7.6-23-3.9-7.5-14.9-7.5-19.9 0-1.5 2.2-3.1 4-3.5 4-.5 0-.9.6-.9 1.4 0 2.7-6.4 3.6-7.4 1-.9-2.3 2.1-7.3 4.9-8 2.5-.6 3-2.1 1.9-6.2-.9-3.1-5.4-2.9-9.3.3zM148.8 386.9c-6.9 2.3-11.4 8-13.1 17-3.1 15.7 14.1 28.9 28.8 22.2 14.9-6.7 16.5-28.7 2.7-37.3-3.7-2.3-13.9-3.3-18.4-1.9zm14 10.1c11 6.7 4.4 23.8-8.4 21.7-8-1.3-12.6-7.8-10.5-14.8 2.4-8.1 11.5-11.4 18.9-6.9zM162.6 441.1c-.3 1.7-.6 5.1-.6 7.5 0 2.4-.5 4.4-1 4.4-.6 0-7.6-.7-15.6-1.5-8-.9-14.9-1.3-15.5-1-.5.4-.9 2.3-.9 4.4 0 3.1.4 4 2.1 4.4 3.1.8 36.8 3.2 37.3 2.6.7-.7 2.5-22.2 1.9-23.2-.2-.4-1.9-.7-3.7-.7-2.9 0-3.4.4-4 3.1zM470.3 220.1c-40.6 3.6-83.9 19-118.6 42-9.5 6.4-12.7 8.8-12.7 9.8 0 .3 2 1.4 4.5 2.4 9.1 3.8 18.4 15 20 24.2 1.1 6.1 2.4 7.7 2.5 3.1 0-2.8 1-5.1 3.7-8.8 3.3-4.6 5-5.7 21.7-13.8 19.3-9.4 39.9-16.7 54.6-19.4 47.4-8.5 87.4-6.9 127 5.1 6.3 1.9 12.2 4.1 13.1 4.9.8.8 2.2 1.4 3 1.4 1.2 0 1.1.2-.1 1-1.2.8-1.2 1 .5 1.1h2l-2 .9-2 .9 2 .1 2 .1-2 .9-2 .9 2 .1c1.5.1 1.6.3.5.7-1 .4-.1 1.1 2.5 1.9l4 1.3-4-.5c-2.8-.3-3.4-.2-2 .5l2 .8-2 .6c-1.1.4-.2.4 2 .2 2.9-.3 3.5-.2 2 .5l-2 .9 2 .1 2 .1-2 .9-2 .9 2 .1c1.4.1 1 .5-1.5 1.5s-2.9 1.4-1.5 1.5l2 .1-2 .8-2 .8 2 .5 2 .6-2 .1c-1.1.1.6 1.2 4 2.6 4.5 1.8 7.5 4.1 11.8 8.7 14.5 15.6 19.1 26.5 23.5 54.8l.8 5.5.9-10c2.6-31.7-4.4-59.4-18.4-73.4-6.2-6.2-11.4-9.2-21.3-12.1-8.1-2.4-3.4-2.7 6.1-.4 19.4 4.7 34.6 17.1 40.1 32.8l1.8 4.9.7-3.4c1.4-7 7.4-17.6 12.2-21.9l4.8-4.2-2.5-1.9c-51.3-40.3-118.4-59.8-185.7-53.8zm124.4 54.5c-.3.3-1.2.4-1.9.1-.8-.3-.5-.6.6-.6 1.1-.1 1.7.2 1.3.5zm0 2c-.3.3-1.2.4-1.9.1-.8-.3-.5-.6.6-.6 1.1-.1 1.7.2 1.3.5zm2 16c-.3.3-1.2.4-1.9.1-.8-.3-.5-.6.6-.6 1.1-.1 1.7.2 1.3.5z"/><path d="M483.3 261.3c-1.2 1.8-3.6 8.6-5.3 15.2-2.7 10.4-3.1 13.3-2.8 21.5.4 8 .9 10.3 3.3 15l2.8 5.5.7-3c7.1-31.3 8-36.5 6-35.8-.3.1-.5-2.5-.4-5.8.1-5.2-.1-5.8-1.4-4.7-1.3 1.1-1.4 1-.5-.7.9-1.7.9-9.2 0-10.1-.1-.2-1.2 1.2-2.4 2.9zM326.8 280.9c-50.7 43-81.9 100.8-90.4 167.6-2.3 17.5-2.2 47.8 0 65 5.2 39.1 16.6 71.3 37.2 104.6 2.9 4.7 6.3 9.7 7.4 11 1.1 1.3.1-.8-2.2-4.6-8.8-14.7-18.6-40.3-23.3-60.5-7.5-32.7-7.7-69.7-.4-104.8 7.2-35.4 21-70.4 37.5-95.2 17.5-26.5 47.7-56.8 53.2-53.3 2.4 1.4 5.9 7.8 8.1 14.8l2 6v-5c.2-13-5.2-35.9-10.5-45.2-2.3-3.9-6.7-8.3-8.5-8.3-.4 0-5 3.6-10.1 7.9zM406.1 276.5c-1.9 1.3-3.8 2.2-4.3 1.9-.9-.6-9.4 7.7-15 14.6-5.5 6.8-8.4 12.8-11 22.1-2 7.3-2.2 10.8-2.3 27.4 0 16 .3 19.9 1.9 24.5 2.3 6.8 6.7 15.7 9.4 19l2 2.5-.9-4.5c-.5-2.5-1.2-10.1-1.5-17-.5-9.9-.3-14.3 1-21 2.6-12.7 7.1-20.7 23.9-42.3 2.7-3.4 4.4-6.3 3.8-6.5-.6-.2-.8-.9-.4-1.5.4-.7-.6-.3-2.2.7l-3 1.9 2-2.2c1.8-2.1 2.9-7.1 1.5-7.1-.3 0-1.2.6-2 1.2-1.2 1.1-1.2 1-.2-.3.6-.9.8-1.9.4-2.3-.4-.4-.1-.6.7-.4.7.1 1.5-.5 1.6-1.5.3-1.6.2-1.6-2.3.1-4.8 3.4-5.8 3.4-2.2.1 2.4-2.2 2.9-3 1.5-2.5-1.7.5-1.8.4-.5-.7 1.7-1.4 2.4-3.7 1.2-3.7-.4 0-1.4.6-2.2 1.2-.8.7-.6.3.5-1 1.5-1.8 3-5.4 2.2-5.2-.1.1-1.7 1.2-3.6 2.5zM657.6 281.1c-2.9 3.4-5.5 8.1-6.1 10.7-.2 1-1.1 4.4-2 7.7-1.3 4.4-1.7 9.7-1.6 20 0 7.7-.4 19.4-.9 26-.9 10.2-1.7 14.9-4.4 25.5-.9 3.5-4.1 10.7-5.8 13.2-1 1.4-1.8 3-1.8 3.5 0 .6-.9 1.8-2 2.8-4.6 4.2-1.1 4.3 8.2.3 9.1-3.9 9-3.7 12.3-41.3 1.6-18.5 3.3-26 6.9-30.2l2.4-2.7 4.3 2.8c2.4 1.6 7.9 6.3 12.2 10.5 33.6 32.5 59.1 86.8 67.8 144.4 2.3 15.1 3.1 44.8 1.7 61.7-.7 8.4-.7 8.5.7 3.5 4.5-16.7 6.5-35 6.5-60 0-25.9-2.4-49.5-6.6-64.2-.9-2.9-1.5-5.5-1.5-5.8 0-.2-.7-2.4-1.5-4.7-.9-2.4-1.7-5-1.9-5.8-1.1-4.8-7.5-20.4-13.5-32.5-11.2-22.9-25.3-43.6-42.4-62.5-8-8.8-26.3-26-27.8-26-.3 0-1.8 1.4-3.2 3.1zM589.8 284.7c.6.2 1.8.2 2.5 0 .6-.3.1-.5-1.3-.5-1.4 0-1.9.2-1.2.5zM589.8 286.7c.6.2 1.8.2 2.5 0 .6-.3.1-.5-1.3-.5-1.4 0-1.9.2-1.2.5zM571 291c0 .6.7 2.2 1.6 3.6 1.5 2.3 1.5 2.4 0 1.8-1.4-.6-1.6-.2-1 2.2.4 1.6 1.3 4.2 2.1 5.8.8 1.5 1 2.5.5 2.2-2-1.2-2.1 1.1-.3 4.7 1 2 1.5 3.5 1.1 3.2-.5-.3 2.1 5.2 5.6 12.2 6.1 12.1 13.4 31.9 13.4 36.3 0 1.1.5 2 1.1 2 3.1 0-1.5-30.7-6.3-42-.8-1.9-1.6-3.8-1.7-4.2-.6-2.7-5-11.6-9.2-19-4.9-8.5-6.9-11.1-6.9-8.8zM503.4 296.9c.4.5.9 3.3 1.2 6.3 1.3 13 1.6 14.2 6.5 24.6 2.2 4.5 4.5 10 5.1 12.2.7 2.2 1.6 4 2 4 2.2 0-.7-18-4.4-28.1-2.4-6.4-9.4-19.9-10.4-19.9-.3 0-.3.4 0 .9zM465 314.5c0 .9.7 6.5 1.6 12.3 1.6 10.7 4.1 17.3 5.6 14.9 1.4-2.1.9-5.2-2.7-16.7-3.4-11.4-4.5-13.8-4.5-10.5zM416.3 321.5c-3.5 6.7-5.6 39-3.3 50.7 1.2 6.2 5.6 18.4 6.9 19.3.4.2.4-2.4-.1-5.8-.9-7.3-.2-21.1 1.9-35.7 1-7.3 1.1-10.6.4-10.8-.6-.2-1.1-1.6-1.1-3 0-3.6-1.1-7.3-1.9-6.7-.4.2-.6-.8-.4-2.3.3-1.5 0-3.8-.5-5.2-.9-2.3-.9-2.3-1.9-.5zM442 335.8c0 .5-1 1.4-2.2 1.9l-2.3 1.1 2.5 1c1.4.6 1.9 1.1 1.2 1.1-.7.1-1 .5-.7 1.1.3.5 0 1-.7 1.1-.7 0 .1.7 1.7 1.4 1.7.8 2.5 1.4 1.9 1.5-1.4 0-1.4 3 0 3 .5 0 .1.6-1 1.4-1.8 1.4-1.8 1.5-.1 2.2 1.5.5 1.6.9.5 1.5-1 .6-.8.9.7.9 1.7 0 1.7.2.5 1-1.3.9-1.3 1 0 1 .9 0 1.1.3.5.8-2.1 1.5-1.6 3.3.9 2.6 4.5-1.1 10.4 1.4 15.3 6.6l4.7 5 1.1-2.8c.6-1.5 1.7-5.3 2.4-8.5l1.3-5.8-4.3-5.5c-4.9-6.4-9.9-10.5-15.3-12.8-4.1-1.7-8.6-2.1-8.6-.8zM488.7 347c-.9 18-2.6 22.6-17.4 47-5.2 8.5-9.8 16.2-10.4 17-2.9 4.7-7.9 14.4-7.9 15.3 0 .7 3 3.2 6.6 5.7 3.6 2.5 7.4 5.1 8.4 5.8 1.7 1.2 2.1 1 4-2.7 1.1-2.3 4-7.1 6.4-10.9 11.9-18.4 15.6-29.5 16.3-48.9.6-14.3.2-17-4.7-37.8-.4-2-.9 1.3-1.3 9.5zM569.3 339.3c-1.2 1.7-4.1 7.9-6.4 13.7-6.8 17.1-11.3 22.3-22.4 26-4.9 1.6-7.8 2-11 1.5-5.7-.8-7.9.5-10.9 6.3-3.5 6.8-4.8 15.3-3.6 22.6 1 6.2 5 15.5 7.5 17.6 1.3 1.1 1.5.7 1.5-2.1 0-9.1 3.4-13.9 11.4-15.8 11.8-2.9 21.8-10.6 26.9-20.8 2.5-5 11.7-31.2 11.7-33.4 0-.8-.7-.5-1.6.7-1.5 1.9-1.6 1.9-.8-.1.4-1.1.9-4 1-6.4.4-4.2.3-4.3-1.2-2.5-1.5 1.9-1.6 1.9-.8-.1.7-1.9 1.6-10.5 1.1-10.5-.1 0-1.2 1.5-2.4 3.3zM532.1 342c-.2 5.2-2 12-4.3 16.7-1.2 2.4-1.9 4.5-1.6 4.9.9.8 8.9-1.8 9.4-3 .2-.6-.5-5.8-1.5-11.6-1.1-6.1-1.9-9-2-7z"/><path d="M670.2 342c0 1.4.2 1.9.5 1.2.2-.6.2-1.8 0-2.5-.3-.6-.5-.1-.5 1.3zM670.8 353.7c-.7 10.8-3.3 17.8-10.3 27.1-2.7 3.7-7.9 8.9-11.5 11.6-3.6 2.7-6.6 5.2-6.8 5.6-.7 1.9 7.1 3.2 15.4 2.5l8.6-.8 1.7-4.1c3.6-8.5 4.3-13.8 4.2-32.1-.1-9.8-.3-18-.5-18.2-.2-.2-.6 3.6-.8 8.4zM606.6 357.6c1.6 18-6.6 36.7-27.8 64-5.4 6.8-9.3 12.4-8.6 12.4 2.6 0 27.6-19.8 34.2-27.1 4.9-5.4 5.6-7.9 5.6-18.8 0-8.4-2.7-36.1-3.5-36.9-.3-.3-.3 2.5.1 6.4zM319 368.8c0 .6.6 3.1 1.4 5.4.8 2.4 2.2 7 3.1 10.2.9 3.3 3 8.6 4.6 11.9 2.8 5.5 3.2 5.8 5.7 5.2 1.5-.4 5.5-1.1 9-1.4l6.3-.6-5.8-4.2c-8.1-5.9-16.6-14.8-20.7-21.7-2-3.3-3.6-5.5-3.6-4.8zM360 375.5c0 1.6.3 5.4.7 8.3.5 4.8.9 5.5 4.2 7.1 4 2.1 10.1 3.6 10.1 2.6 0-.4-2-3-4.4-5.8-2.4-2.9-5.7-7.5-7.5-10.2-3-4.8-3.1-4.9-3.1-2zM397.4 377.4c.4 1 1.1 5.8 1.6 10.5 1.7 16.5 2.4 18.2 9.8 25.3 7.4 7.1 25.2 20.8 27.1 20.8.6 0-2.4-4.4-6.7-9.8-11.8-14.6-19.4-25.5-26.2-37.7-3.4-6.1-5.9-10.1-5.6-9.1zM648.5 411.6c-17.8 2.7-21.2 3.6-28 7.6-16.3 9.6-34.7 23.3-56 41.8-20.3 17.7-26.5 23.3-26.1 23.7.2.3 3.8-.7 7.9-2.1 10-3.5 18-5.2 31.5-7l11.3-1.5 6.9-6.5c11.9-11.2 25.8-20.2 36-23.2 4.2-1.2 5-1.9 6.9-6.2l2.1-4.7-.5 4c-2.4 16.9-7.5 29.3-15.6 37.6-5.2 5.3-12.9 9.5-20.1 10.8l-4.3.8 4 1.2c6 1.9 28.4 2.5 31.5.9 4.8-2.5 6.4-10 6.5-29.7v-17.5l8.5-2.1 8.5-2.1 1.7-7 1.6-6.9.2 7c.1 3.8.6 8.3 1 10l.8 3 .1-3.3c.1-3.1.2-3.2 4.9-3.4 8.3-.4 12.6.2 15.9 2.2 1.8 1.1 3.4 1.6 3.4 1.2.1-.4.3-5.3.4-10.9.2-9.3.1-10.4-1.9-12.2-4.5-4.2-9.4-5.4-23.1-5.7-7.1-.1-14.3 0-16 .2zM499.6 421c.3 5.2 1.2 12 2.1 15 1.5 5.6 11.1 25 12.3 25 .9 0 12-11.8 12-12.8 0-.4-2.3-3-5.1-5.7-7-6.9-13.7-15.7-18.2-24l-3.7-7 .6 9.5zM327.5 413.4c-.5.2-2.2.7-3.7 1-3 .7-6.6 6-4.8 7.1.6.3 1 1.7 1 3 0 1.8.4 2.3 1.5 1.9 1.1-.5 1.3-.2.9 1-.4 1 .2 3.6 1.2 5.9 2.6 6 3.3 6.8 5.4 5.7 2.7-1.5 21.7 2.3 31.2 6.3 4.6 1.9 13.4 5.5 19.6 8.1 14.6 6 24.2 11.8 31.1 18.7 1.1 1.1 5.1 2 12.6 2.8 13.6 1.5 28 4.5 36.4 7.7 3.5 1.3 6.8 2.4 7.4 2.4 1.6 0-11.6-13.2-20.2-20.1-10.5-8.5-19.7-14.6-38.8-25.5-30.4-17.4-36.3-20-50.3-22.8-11.8-2.3-28.3-4-30.5-3.2zM326 443.3c0 2.1 7.7 21.2 10.1 25.2 9 14.9 13.1 18 28.1 21.1 11.3 2.4 39.8.6 39.8-2.6 0-.4-2.1-1-4.7-1.4-6.9-.9-24.5-7.2-34.8-12.3-16.5-8.3-27.3-16.3-34.6-25.6-2.2-2.7-3.9-4.7-3.9-4.4z"/><path d="M665.2 446.5c0 1.6.2 2.2.5 1.2.2-.9.2-2.3 0-3-.3-.6-.5.1-.5 1.8zM278.3 448c3.4 10.1 10.5 25.6 13.2 28.7 8.1 9.5 52.3 21.6 63 17.3 2.9-1.2 2.8-1.3-5.5-3-28-5.8-55.5-21.8-67.7-39.5-2-2.7-3.3-4.3-3-3.5zM666.2 452c0 1.4.2 1.9.5 1.2.2-.6.2-1.8 0-2.5-.3-.6-.5-.1-.5 1.3zM667.2 457c0 1.4.2 1.9.5 1.2.2-.6.2-1.8 0-2.5-.3-.6-.5-.1-.5 1.3zM668.2 462.5c0 1.6.2 2.2.5 1.2.2-.9.2-2.3 0-3-.3-.6-.5.1-.5 1.8zM669.6 471.7c.7 8.7-1 13.9-6 18.9-3 3-5.8 4.7-9.9 5.9-3.1.9-5.7 1.9-5.7 2.2 0 .7 18.7-.4 21.7-1.3 2.2-.6 2.2-.9 1.6-12.3-.3-6.4-.9-13.4-1.4-15.6-.7-3.2-.7-2.7-.3 2.2z"/><path d="M724.1 469.6c-.4 15.9-22.3 32.5-48.1 36.3-18.6 2.8-40.8 1.6-55-3-18.7-6-40.2-7.6-54.3-4-12.2 3.2-12.9 3.8-15.1 12.2-3.5 13.7-10.8 26.4-17.4 30.2l-3 1.7-.7-5.2c-3-24.5-8.5-41.2-20.1-61.5-2.3-4-3.8-4.3-3-.6.4 1.6.8 4.7 1 7 .3 2.2 1.9 7.4 3.7 11.4 6.7 15.4 10.7 30.8 12.9 49.4 1.4 12.8 1.3 13.4-1.6 7.9-6.8-12.8-23.2-30.9-34-37.4-8.4-5.1-17.7-7.9-25.6-8-5.1 0-7.8-.6-11.7-2.5-17-8.6-40.2-8.6-68.6 0-17.1 5.1-26 5.6-43.5 2.5-25-4.5-46.8-15.1-62.4-30.1-4.4-4.3-8.1-7.7-8.3-7.6-.4.5 7.4 17.3 9.9 21.2 3.9 6.1 18.4 19.5 26.8 24.7 10.1 6.3 20.2 10.5 34 14.1 9.8 2.5 13.4 3 24.5 3 11.1.1 14.6-.3 23.4-2.7 15.5-4 19.6-4.7 31.1-4.7 18.3 0 28.9 5.1 35.3 16.9 2.9 5.3 9.6 32.1 10.1 40.3.2 3.1 2 7.9 6 15.8 10.6 21.1 22.9 37.3 37.6 49.9 15.5 13.2 23.5 16.4 45.1 18.4 13.7 1.2 16.6.8 15.4-2-.4-.9-.7-2.7-.7-3.9.2-2.5-.8-2.7-13.7-3.8-4.1-.4-9.8-1.6-12.8-2.6-4.7-1.8-5.3-2.4-5.3-4.9 0-4.7-1.6-7.5-8.6-15.2-7.1-7.7-12.6-15.6-19-27.5-3.5-6.5-4.2-7.3-6.9-7.3-1.6-.1-4.1-.7-5.5-1.5-1.4-.8-3.9-1.4-5.7-1.5-1.7 0-3.3-.5-3.5-1.2-.2-.6-1.5-1.2-2.9-1.3-1.9-.1-3.3-1.7-6.7-7.6-10-17.6-15.5-35.9-15.6-52.4-.1-6.1.3-12.3.7-13.9.8-2.7 1-2.8 5.3-2.3 22.9 2.5 59.6 46.3 66.4 79 1.3 6.4 1.7 15.3.7 16.3-.3.3-4.7-3.4-9.7-8.2-9.2-8.9-17.9-19.5-20.2-24.6-.7-1.5-1.8-3-2.5-3.2-1.6-.6-2.7 1-1.3 1.9.5.3 1 1.4 1 2.4 0 3.3 4.6 16.5 8.5 24.1 5.2 10.3 11.5 19.6 17.3 25.3 4.6 4.6 5 4.7 8.8 3.9l3.9-.8.3-7.7c.2-4.8-.5-12.1-1.8-18.9-3.5-19.6-3-22.1 7.9-38.5 4.3-6.5 10-16 12.7-21.1 8.3-15.8 12.9-19.8 25.2-22.2 8.6-1.7 20.9-.7 35.7 2.9 11.1 2.7 18.5 4 30.8 5.6 6.5.9 18-1 31.7-5.2 20.8-6.3 32.3-14.1 38.1-25.9 3-6 3.3-7.4 3.7-19.2.2-7 .2-13.6-.1-14.7-.2-1.1-.5-.2-.6 2.1z"/><path d="M461 584.5c0 .8.4 1.5 1 1.5.5 0 .7-.7.4-1.5-.4-.8-.8-1.5-1-1.5-.2 0-.4.7-.4 1.5zM454 630.6c0 .3.7 1.2 1.5 2 1.6 1.7 1.8 1.4.9-1-.6-1.5-2.4-2.3-2.4-1z"/></svg>